<svg width="140" height="157" viewBox="0 0 140 157" fill="none" xmlns="http://www.w3.org/2000/svg">
<g clip-path="url(#clip0_368_1081)">
<path d="M27.4528 112.969C27.4068 112.349 27.3423 111.877 27.3423 111.406C27.3423 77.5012 27.3423 43.606 27.3976 9.70152C27.3976 6.82528 27.241 4.06927 25.896 1.45199C25.334 0.360686 25.4906 0.212712 26.7159 0.203464C32.9987 0.157222 39.2815 0.120229 45.5551 0.0924835C53.4409 0.0462418 61.3174 0 69.194 0C81.9991 0.0184967 94.8043 0.0739868 107.609 0.129477C109.277 0.129477 110.944 0.175719 112.603 0.203464C112.934 0.203464 113.266 0.258954 113.819 0.295947C113.247 1.72944 112.732 2.99647 112.225 4.27274C112.077 4.63342 111.866 5.01261 111.866 5.39179C111.847 26.0526 111.847 46.7134 111.856 67.3742C111.856 81.6259 111.939 95.8777 111.829 110.129C111.81 112.109 112.4 113.117 114.03 114.115C122.432 119.276 130.751 124.585 139.116 129.81C139.761 130.217 139.982 130.642 139.963 131.391C139.917 134.453 139.853 137.523 139.972 140.584C140.055 142.776 139.217 144.478 137.494 145.56C135.274 146.956 132.962 148.288 130.539 149.25C124.118 151.802 117.347 153.042 110.557 154.115C99.6408 155.825 88.6504 156.602 77.6048 156.889C67.3976 157.157 57.2087 156.917 47.0291 156.131C36.4994 155.317 26.0434 154.031 15.7992 151.331C11.7642 150.267 7.81212 148.972 4.20088 146.818C3.3165 146.29 2.47818 145.634 1.71355 144.94C0.525159 143.867 -0.0552187 142.517 -0.0183693 140.852C0.0461171 137.615 0.0276924 134.369 -0.0183693 131.132C-0.0275817 130.393 0.239576 130.013 0.819954 129.653C9.26767 124.363 17.7154 119.063 26.1539 113.764C26.5961 113.487 27.0291 113.209 27.4344 112.95L27.4528 112.969ZM0.543584 132.631C0.525159 133.028 0.48831 133.361 0.48831 133.694C0.48831 136.025 0.552796 138.365 0.460673 140.695C0.396186 142.508 1.05948 143.96 2.45975 144.94C4.09955 146.087 5.80383 147.206 7.62788 148.011C14.6385 151.109 22.1097 152.533 29.627 153.68C44.6523 155.983 59.7697 156.713 74.9517 156.473C85.8867 156.297 96.7849 155.613 107.619 154.087C114.942 153.051 122.211 151.756 129.212 149.278C132.133 148.251 134.989 147.077 137.411 145.079C138.821 143.914 139.632 142.499 139.549 140.556C139.438 138.189 139.521 135.821 139.521 133.454C139.521 133.167 139.484 132.88 139.475 132.677C138.425 133.565 137.467 134.527 136.361 135.276C135.219 136.052 133.966 136.681 132.704 137.255C131.442 137.837 130.143 138.328 128.825 138.762C121.594 141.195 114.123 142.536 106.587 143.562C95.1636 145.125 83.6666 145.745 72.1419 145.828C62.5611 145.893 52.9987 145.541 43.4547 144.681C34.574 143.877 25.7393 142.721 17.089 140.482C11.1286 138.938 5.10369 137.421 0.534371 132.612L0.543584 132.631ZM69.5625 16.3881C69.065 16.3881 68.6597 16.3881 68.2543 16.3881C64.1272 16.4158 60 16.4436 55.8637 16.4621C48.6781 16.4898 41.4925 16.5268 34.316 16.5176C33.3672 16.5176 33.0816 16.7488 33.0908 17.7291C33.1092 25.396 33.0724 33.0536 33.0632 40.7205C33.0447 57.6542 33.0171 74.588 33.0079 91.5217C33.0079 98.0695 33.0539 104.617 33.0447 111.174C33.0447 111.988 33.3303 112.164 34.0765 112.164C36.6099 112.155 39.1433 112.219 41.6767 112.219C50.281 112.219 58.8946 112.219 67.4989 112.219C69.3137 112.219 69.1019 112.441 69.1295 110.592C69.2308 104.22 69.2953 97.8476 69.3414 91.4754C69.4243 81.3763 69.5072 71.277 69.5348 61.1686C69.5717 46.6394 69.5625 32.1103 69.5717 17.5811C69.5717 17.2389 69.5717 16.8967 69.5717 16.3973L69.5625 16.3881ZM106.145 112.127V16.61C105.841 16.5823 105.61 16.5361 105.371 16.5361C93.9844 16.4806 82.6071 16.4436 71.2207 16.3696C70.3087 16.3696 70.1521 16.6933 70.1521 17.5164C70.106 38.0755 70.0507 58.6253 69.9586 79.1844C69.9217 88.59 69.802 97.9955 69.7283 107.401C69.7191 108.964 69.7283 110.518 69.7283 112.127H106.135H106.145ZM124.735 123.04C123.012 123.974 121.446 125.065 119.724 125.694C116.96 126.693 114.113 127.553 111.248 128.173C98.7472 130.846 86.0433 131.613 73.3027 131.771C62.0544 131.909 50.8153 131.558 39.6592 129.995C34.4174 129.264 29.2124 128.145 24.0443 126.989C20.8752 126.277 17.8352 125.093 15.2096 122.652C15.2096 124.696 15.357 126.517 15.1728 128.302C14.9425 130.494 15.965 131.798 17.7154 132.76C18.3879 133.13 19.042 133.555 19.7605 133.777C23.1046 134.795 26.4211 135.979 29.8296 136.7C41.7596 139.206 53.8831 139.881 66.0341 140.066C75.5781 140.214 85.1129 139.918 94.62 138.984C101.806 138.281 108.964 137.375 115.901 135.276C118.204 134.573 120.451 133.583 122.589 132.473C123.482 132.011 124.523 130.938 124.634 130.041C124.919 127.692 124.726 125.278 124.726 123.049L124.735 123.04ZM125.214 121.477C125.214 123.808 125.039 125.916 125.26 127.979C125.555 130.772 124.219 132.381 121.925 133.491C121.336 133.777 120.755 134.138 120.129 134.323C116.536 135.368 112.98 136.589 109.332 137.329C97.9365 139.65 86.3566 140.325 74.7674 140.51C61.9899 140.714 49.2308 140.233 36.5546 138.383C31.2299 137.606 25.9328 136.672 20.8937 134.721C19.1709 134.055 17.5588 133.047 15.9835 132.048C15.0715 131.475 14.6845 130.485 14.7306 129.329C14.7951 127.905 14.749 126.471 14.749 125.047C14.749 123.909 14.749 122.781 14.749 121.597C14.5003 121.644 14.3897 121.634 14.3068 121.681C9.82963 124.483 5.35243 127.276 0.902865 130.124C0.672557 130.272 0.543584 130.846 0.626495 131.16C0.958139 132.557 1.88859 133.62 3.05855 134.295C5.20503 135.544 7.38836 136.829 9.69144 137.726C16.5546 140.39 23.7771 141.685 31.018 142.767C43.3257 144.616 55.7163 145.319 68.153 145.384C79.5026 145.449 90.8338 144.968 102.119 143.655C109.949 142.748 117.715 141.518 125.325 139.382C129.24 138.281 133.128 137.033 136.463 134.61C137.568 133.805 138.406 132.584 139.272 131.475C139.687 130.938 139.475 130.466 138.821 130.06C135.246 127.849 131.709 125.574 128.162 123.327C127.232 122.735 126.301 122.152 125.214 121.468V121.477ZM110.99 113.422C108.337 115.225 105.435 115.9 102.515 116.483C92.7131 118.462 82.773 118.943 72.8144 119.082C63.51 119.211 54.2239 118.906 44.9839 117.695C39.5026 116.973 33.966 116.4 28.936 113.505C28.936 115.567 28.9637 117.574 28.9268 119.59C28.9084 120.46 29.24 121.107 29.977 121.468C31.0641 122.004 32.1511 122.578 33.2935 122.938C38.8577 124.677 44.6154 125.315 50.3824 125.824C59.9632 126.675 69.5717 126.832 79.1802 126.462C87.0843 126.157 94.9793 125.648 102.736 123.946C105.085 123.429 107.361 122.541 109.618 121.671C110.189 121.449 110.898 120.672 110.935 120.099C111.092 117.935 111 115.752 111 113.422H110.99ZM28.4662 112.784C24.0443 115.567 19.8342 118.203 15.661 120.876C15.4584 121.005 15.3294 121.69 15.4768 121.866C16.0111 122.531 16.5915 123.216 17.2916 123.687C19.6592 125.278 22.3584 126.111 25.0761 126.832C33.3948 129.024 41.907 129.995 50.4561 130.642C60.1567 131.373 69.8665 131.502 79.5763 131.169C89.4335 130.827 99.2446 130.05 108.954 128.182C113.257 127.359 117.54 126.443 121.465 124.4C122.487 123.863 123.39 123.059 124.256 122.272C124.846 121.736 124.772 121.209 123.98 120.728C120.101 118.342 116.269 115.9 112.409 113.477C112.142 113.311 111.847 113.181 111.451 112.978V117.972C111.451 121.357 111.165 121.773 107.987 122.994C107.628 123.133 107.269 123.262 106.909 123.373C102.11 124.853 97.1627 125.528 92.1972 126.037C81.7504 127.109 71.2852 127.294 60.8015 126.915C53.1 126.638 45.4077 126.129 37.8444 124.557C35.3478 124.039 32.9158 123.179 30.5021 122.328C29.0742 121.829 28.3372 120.765 28.4386 119.091C28.5675 117.084 28.4662 115.068 28.4662 112.774V112.784ZM106.071 15.8424C106.117 15.7314 106.172 15.6667 106.172 15.602C106.182 12.0506 106.2 8.49924 106.191 4.94787C106.191 4.12476 105.758 3.74558 104.873 3.74558C98.8393 3.73633 92.8052 3.66235 86.7619 3.6531C77.8075 3.6346 68.8623 3.6346 59.9079 3.6531C51.4786 3.6716 43.0493 3.72709 34.62 3.76408C33.3027 3.76408 33.0539 4.00454 33.0539 5.3548C33.0632 8.59172 33.0908 11.8286 33.1092 15.0748C33.1092 15.343 33.1737 15.602 33.2013 15.8517H106.062L106.071 15.8424ZM28.0056 4.42071V112.062H32.3814V4.42071H28.0056ZM106.845 4.42996V112.044H111.193V4.42996H106.845ZM29.1295 112.774C30.5021 114.097 31.9945 114.578 33.4777 115.022C39.2262 116.723 45.159 117.38 51.1009 117.889C58.913 118.564 66.7527 118.712 74.5924 118.573C83.1691 118.416 91.7182 117.963 100.166 116.427C103.086 115.9 105.933 114.957 108.789 114.125C109.452 113.93 110.023 113.394 110.631 113.015C110.585 112.932 110.539 112.858 110.493 112.774H29.1295ZM33.837 3.05196H105.389C105.242 2.66353 105.076 2.35833 105.002 2.02539C104.754 0.95258 104.109 0.67513 103.04 0.702875C100.617 0.776862 98.1852 0.684378 95.7532 0.684378C83.1599 0.67513 70.5666 0.656633 57.9733 0.665881C50.5482 0.665881 43.123 0.712123 35.6979 0.721371C35.053 0.721371 34.6385 0.869345 34.445 1.52598C34.2976 2.01614 34.0673 2.48781 33.837 3.05196ZM112.925 0.850848H105.177C105.537 1.72019 105.795 2.47856 106.163 3.17218C106.301 3.44039 106.688 3.73633 106.974 3.74558C108.393 3.81032 109.811 3.80107 111.221 3.76408C111.469 3.76408 111.829 3.56986 111.921 3.35715C112.28 2.58029 112.556 1.76644 112.916 0.8416L112.925 0.850848ZM26.3474 0.823103C26.6422 1.62771 26.9185 2.28434 27.112 2.96872C27.2962 3.60686 27.6463 3.82882 28.3096 3.79182C29.5809 3.73633 30.8614 3.79182 32.1419 3.74558C32.4275 3.73633 32.8605 3.57911 32.971 3.3664C33.3856 2.58029 33.6804 1.73869 34.0673 0.813855H26.3381L26.3474 0.823103Z" fill="white"/>
<path d="M63.5192 63.8321C64.5879 63.9246 65.1222 63.4961 65.1222 62.5466C65.1222 62.3062 65.0946 62.0565 65.1222 61.816C65.2419 60.9652 65.7763 60.4842 66.5962 60.4935C67.4345 60.4935 67.978 61.0022 67.9872 61.8715C68.0333 64.3038 68.0609 66.7361 68.0609 69.1684C68.0609 70.158 67.5082 70.7129 66.6238 70.7222C65.7578 70.7222 65.1867 70.1395 65.159 69.1777C65.1406 68.3731 65.1775 67.5777 65.159 66.7731C65.159 66.4402 65.0761 66.1165 65.0301 65.7836C63.8417 65.9223 63.4732 66.4772 63.4824 67.6055C63.5745 77.1128 63.6114 86.6201 63.6298 96.1366C63.6298 96.5991 63.3995 97.2464 63.0494 97.4869C61.7228 98.4117 60.4055 99.4938 58.9131 99.984C53.7265 101.676 48.4663 101.575 43.2521 99.9285C42.5612 99.7158 41.9071 99.3643 41.2806 99.0036C39.6593 98.0695 38.7841 96.9228 38.8209 94.7679C38.996 84.1785 38.9776 73.5892 38.9776 62.9998C38.9776 53.1411 38.9131 43.2823 38.8486 33.4236C38.8486 32.4895 39.3368 31.9253 39.9541 31.4167C41.732 29.9184 43.8509 29.1601 46.0987 28.7901C50.2443 28.1058 54.4082 28.004 58.4524 29.3081C59.9356 29.789 61.2806 30.7231 62.6441 31.5369C63.3995 31.9901 63.639 32.7577 63.6298 33.6918C63.5653 43.2731 63.5377 52.8544 63.5008 62.4264C63.5008 62.8703 63.5008 63.3235 63.5008 63.8229L63.5192 63.8321ZM50.6496 43.9574C51.276 43.7632 51.5432 43.9574 51.5248 44.6418C51.4971 45.8349 51.5248 47.0371 51.5248 48.2302H53.5238C52.7684 46.4545 52.0407 44.7621 51.2852 42.9864C51.0181 43.4025 50.8431 43.68 50.668 43.9574C50.1337 45.3724 49.5994 46.7874 49.0559 48.2302H51.0641C50.926 46.7597 50.797 45.3539 50.6588 43.9574H50.6496ZM57.6878 58.9768V54.6855C56.6468 55.5271 55.7809 56.2208 54.8136 56.9976C55.8454 57.6912 56.7758 58.3294 57.7062 58.9583C57.8444 59.0323 58.0655 59.2172 58.1208 59.171C59.3092 58.2554 60.47 57.3213 61.6676 56.3595C60.5437 55.7491 59.5027 55.1757 58.2682 54.5098C58.2682 55.8138 58.3051 56.9421 58.2406 58.0704C58.2221 58.3849 57.8813 58.6716 57.6878 58.9675V58.9768ZM44.1733 52.4752C44.2839 52.6971 44.3944 52.9098 44.5694 53.2705C45.1038 52.6786 45.5367 52.2347 45.9237 51.7631C47.066 50.385 46.9831 49.4787 45.5275 48.4521C46.7804 48.3597 46.5409 47.4811 46.4856 46.7782C46.4119 45.7516 45.5736 45.2892 44.7537 44.4938C44.7537 45.132 44.7537 45.4742 44.7537 45.8164C44.7721 47.7678 44.7905 49.7099 44.7998 51.6613C44.7998 52.1052 44.9011 52.6416 44.1549 52.5029V45.0118C44.0536 44.9933 43.9522 44.9748 43.8417 44.9563C43.0863 46.1586 42.3216 47.3516 41.5846 48.5631C41.4741 48.7388 41.4004 49.0995 41.5017 49.2198C42.3677 50.3296 43.2797 51.4024 44.1733 52.4844V52.4752ZM44.1733 76.9648C43.2797 78.0469 42.3769 79.1382 41.4925 80.2295C41.4188 80.322 41.382 80.5254 41.428 80.6087C42.2295 81.9404 43.0402 83.2537 43.8601 84.5762C43.9522 84.53 44.0536 84.4745 44.1457 84.4282C44.1457 81.9312 44.1457 79.4434 44.1457 76.9463C44.3668 77.159 44.7445 77.3532 44.7629 77.5844C44.8274 78.3798 44.7629 79.1752 44.7629 79.9798C44.7629 81.5797 44.7629 83.1889 44.7629 84.7889C44.8919 84.8352 45.0209 84.8722 45.159 84.9184C45.6104 84.1415 46.1355 83.4017 46.4764 82.5878C46.808 81.8017 46.3198 81.2375 45.5091 80.8584C46.6883 80.7474 46.9094 79.8318 46.6422 79.2029C46.2092 78.2041 45.4078 77.3625 44.7537 76.4469C44.5602 76.6226 44.3668 76.7891 44.1733 76.9648ZM58.3235 60.6415C58.1484 60.6322 57.9642 60.6137 57.7892 60.6045C57.1904 61.3351 56.4442 61.9825 56.048 62.8148C55.7256 63.4992 56.0112 64.3038 56.6008 64.4888C56.3152 65.0529 55.9006 65.5338 55.8546 66.0518C55.7164 67.6055 57.089 68.2159 57.9273 69.2794C58.4893 68.743 58.9683 68.2991 59.4382 67.8274C59.8251 67.439 60.5252 67.0136 60.516 66.6159C60.4884 65.5061 61.0319 64.8772 61.9624 64.3593C61.3083 63.6194 60.7647 62.9443 60.1567 62.3339C59.5764 61.742 58.9315 61.2149 58.3143 60.6507L58.3235 60.6415ZM44.1641 60.6322C43.0955 61.7143 41.9716 62.7501 40.9766 63.8969C40.7095 64.2021 40.5713 65.0344 40.7832 65.2934C41.9439 66.6899 43.2244 67.9754 44.5326 69.3812C45.1775 68.6413 45.6749 68.1049 46.1171 67.5407C47.0476 66.3569 46.8817 65.3211 45.6473 64.572C46.458 64.0171 46.8449 62.8981 46.329 62.2229C45.8592 61.6033 45.2143 61.1131 44.6431 60.5675C44.4773 60.586 44.3207 60.6045 44.1549 60.6322H44.1641ZM62.4967 64.0079C62.6072 64.0079 62.7086 64.0079 62.8191 64.0079C62.8467 63.7767 62.902 63.5547 62.902 63.3235C62.9481 53.4278 62.9941 43.5413 63.0033 33.6455C63.0033 33.1276 62.727 32.3878 62.3401 32.1288C61.0135 31.278 59.6501 30.3439 58.1669 29.8907C53.6897 28.5312 49.1111 28.5404 44.6155 29.789C43.031 30.2236 41.5939 31.2595 40.1475 32.1381C39.7882 32.3508 39.5027 32.9981 39.5027 33.4513C39.5119 44.0037 39.5948 54.5653 39.604 65.1177C39.604 75.3279 39.5579 85.5288 39.4934 95.739C39.4934 96.5158 39.6869 97.1632 40.3226 97.5239C41.6676 98.2915 42.9941 99.1793 44.4497 99.651C48.1162 100.835 51.9117 100.724 55.6795 100.197C57.8629 99.8915 59.9264 99.2071 61.7689 97.9308C62.6717 97.3019 63.0678 96.5343 63.0494 95.3875C62.9757 89.8478 62.9757 84.308 62.9481 78.7682C62.9296 75.1429 62.9204 71.5268 62.902 67.9014C62.902 67.5685 62.8559 67.2355 62.8375 66.9026C62.727 66.9118 62.6164 66.9211 62.4967 66.9304C62.4967 67.291 62.4967 67.661 62.4967 68.0217C62.5151 76.7983 62.423 85.5843 62.6256 94.3517C62.6809 96.5898 61.7505 97.5979 60.0462 98.3932C59.4842 98.6522 58.9039 98.9019 58.3051 99.0869C54.6293 100.261 50.8707 100.335 47.0844 99.7897C44.9011 99.4753 42.8467 98.7817 40.9951 97.5146C40.2212 96.9782 39.8527 96.3401 39.8619 95.3413C39.9448 88.8304 39.9909 82.3104 39.9909 75.7995C39.9817 62.001 39.9448 48.2117 39.8619 34.4131C39.8619 33.1276 40.2765 32.3323 41.3267 31.6849C43.8601 30.1312 46.6514 29.5578 49.5625 29.4283C53.0909 29.2711 56.5731 29.4468 59.8527 30.9635C61.6676 31.8051 62.6809 32.8039 62.6256 35.2085C62.3953 44.4014 62.5059 53.6035 62.4875 62.7963C62.4875 63.194 62.4875 63.5917 62.4875 63.9801L62.4967 64.0079ZM49.0743 93.4731C46.8173 91.5865 44.6616 89.857 42.119 88.701C41.4649 88.405 40.6266 88.9044 40.5989 89.6166C40.5252 91.6974 40.4976 93.7876 40.516 95.8777C40.516 96.5066 40.8661 96.895 41.6307 96.6823C44.1825 95.9794 46.6054 94.9806 49.0651 93.4639L49.0743 93.4731ZM49.0282 36.0316C46.6054 34.4871 44.0996 33.4236 41.4557 32.7299C40.8016 32.5635 40.5068 33.0536 40.5068 33.6548C40.5068 35.7079 40.5344 37.7518 40.5897 39.7957C40.6081 40.5356 41.4833 41.0812 42.119 40.776C44.6339 39.5737 46.8173 37.8905 49.0282 36.0224V36.0316ZM53.4594 36.2998C55.7164 37.7703 57.9458 39.2685 60.2304 40.702C60.9306 41.1367 61.8979 40.6373 61.9163 39.8697C61.99 37.7888 62.0084 35.6987 61.9992 33.6178C61.9992 33.0444 61.6952 32.5542 61.0135 32.7392C58.3972 33.4421 55.9098 34.4594 53.4501 36.3091L53.4594 36.2998ZM53.4594 93.4639C55.8361 94.9251 58.1945 95.9424 60.7003 96.6268C61.6123 96.8765 61.9992 96.6268 62.0084 95.6465C62.0268 93.6673 61.99 91.6882 61.9347 89.709C61.9163 88.9322 61.0872 88.3773 60.3962 88.6917C57.8629 89.8478 55.7164 91.568 53.4594 93.4454V93.4639ZM53.9476 47.7123C54.0858 47.7123 54.224 47.7215 54.3622 47.7308C54.657 47.0649 55.2466 46.3713 55.1821 45.7331C54.961 43.4673 53.9292 41.5806 52.0038 40.2489C51.3958 39.8327 50.8983 39.8697 50.3087 40.2951C48.6966 41.4604 47.8583 43.0881 47.3884 44.9563C47.066 46.251 47.2963 46.8059 48.5308 47.703C49.3967 45.6314 50.2535 43.5783 51.101 41.5251C51.1931 41.5251 51.2852 41.5344 51.3774 41.5436C52.2341 43.5968 53.0817 45.6591 53.9384 47.7123H53.9476ZM48.5215 81.7462C48.4018 81.7462 48.2728 81.7277 48.153 81.7277C47.8583 82.3936 47.2594 83.0965 47.3239 83.7254C47.5174 85.871 48.4294 87.7114 50.189 89.0801C50.9168 89.6443 51.5248 89.5981 52.2433 89.0617C53.791 87.9056 54.6662 86.3426 55.136 84.493C55.4492 83.2629 55.1729 82.5971 53.966 81.7647C53.1001 83.8363 52.2433 85.8895 51.3866 87.9518C51.2945 87.9518 51.2023 87.9426 51.1194 87.9334C50.2627 85.871 49.4059 83.8086 48.5492 81.7462H48.5215ZM52.9895 94.1667C50.7601 95.5632 52.3539 97.5794 52.2618 99.466C55.2373 99.3921 58.001 98.9111 60.5068 97.4222C57.9734 96.3216 55.4953 95.258 52.9803 94.1667H52.9895ZM42.0268 97.4222C42.2848 97.5701 42.5612 97.8013 42.8744 97.8846C44.7998 98.3932 46.7251 98.9574 48.6782 99.3273C50.1706 99.6048 50.189 99.4845 50.3916 98.0141C50.4285 97.7736 50.4561 97.5239 50.5575 97.3019C51.2208 95.8592 50.364 94.9621 49.5625 94.1297C47.0107 95.2395 44.551 96.3216 42.0268 97.4222ZM50.2719 30.1589C47.932 29.7797 43.3166 30.9265 42.1742 32.0826C44.5971 33.1461 47.0568 34.2282 49.5165 35.3102C51.7366 33.9785 50.2443 31.9901 50.2719 30.1589ZM52.9343 35.3565C55.5045 34.2189 57.955 33.1369 60.5068 32.0086C57.9089 30.5843 55.1913 30.0757 52.3078 30.0479C52.1973 30.7878 52.2433 31.4629 51.9946 31.9993C51.3129 33.4698 52.0775 34.4316 52.925 35.3565H52.9343ZM58.2498 52.5399C58.1208 52.5399 57.9918 52.5399 57.8629 52.5399V44.4199C56.5823 45.4742 55.5782 46.436 56.1217 48.1377C56.3797 48.2487 56.6653 48.3689 56.9416 48.4799C55.9467 48.7203 55.7624 49.3955 55.8177 50.1631C55.9283 51.5966 57.1074 52.2532 57.9826 53.252C59.0328 51.8555 60.0001 50.5885 60.9582 49.3122C61.0503 49.192 61.1332 48.9516 61.078 48.8498C60.2949 47.5458 59.4842 46.251 58.6828 44.947C58.5354 44.9933 58.388 45.0395 58.2406 45.0765V52.5307L58.2498 52.5399ZM57.8629 76.9648C58.0195 76.9648 58.1669 76.9833 58.3235 76.9926V84.382C58.4524 84.419 58.5722 84.456 58.7012 84.493C59.4842 83.2444 60.2673 82.0052 61.0227 80.7474C61.1056 80.6087 61.078 80.3127 60.9766 80.1832C60.0185 78.8792 59.0236 77.5937 57.955 76.1879C57.4299 76.7706 56.914 77.2053 56.5823 77.7509C56.2415 78.3058 55.9098 78.9717 55.9098 79.5821C55.9098 80.0723 56.4165 80.5532 56.7021 81.0618C56.048 81.1728 55.9467 81.7462 55.9928 82.4953C56.0757 83.8086 57.1627 84.2803 57.8536 85.1404V76.9556L57.8629 76.9648ZM57.7523 43.5135C56.1217 41.9136 54.6201 40.2858 52.9527 38.8431C50.9536 37.1137 51.5156 37.1414 49.5441 38.8431C47.8859 40.2766 46.3935 41.9228 44.7998 43.495C45.5091 44.2534 46.0158 44.799 46.4488 45.2615C47.0936 43.9205 47.499 42.4777 48.3649 41.4049C50.6772 38.5564 51.4971 38.5564 53.92 41.1737C54.5188 41.8211 54.8965 42.6812 55.2926 43.4858C55.569 44.0592 55.698 44.6973 55.9283 45.4187C56.5271 44.7898 57.0522 44.2441 57.7523 43.5043V43.5135ZM55.8914 84.0213C55.4676 85.9542 54.8688 87.6467 53.4778 88.8397C51.3682 90.6431 51.0089 90.8188 49.0006 88.7842C48.1346 87.9056 47.6556 86.6386 47.0568 85.5195C46.8357 85.1034 46.7712 84.6132 46.5869 84.0213C45.9789 84.6779 45.4446 85.2421 44.7076 86.0282C46.7804 87.9426 48.7795 89.8015 50.8062 91.6234C50.9812 91.7807 51.4879 91.8084 51.6722 91.6697C53.8831 89.9865 55.8822 88.0721 57.5957 85.8247C57.043 85.2421 56.5271 84.6964 55.8822 84.0213H55.8914ZM58.1669 74.9764C59.5211 74.2828 60.5805 73.7741 61.5754 73.1822C61.7044 73.1082 61.6768 72.3776 61.5202 72.2759C60.4423 71.5823 59.3276 70.9626 58.2037 70.3522C58.0379 70.269 57.7155 70.2967 57.5681 70.4077C56.656 71.0736 55.7809 71.7765 54.8596 72.4886C55.7993 73.247 56.6653 73.9591 57.6694 74.7729C57.6694 73.9221 57.6694 73.2377 57.6694 72.5626C57.6694 71.8875 57.6694 71.2586 57.6694 70.6019C57.8352 70.6019 58.001 70.6019 58.1669 70.5927V74.9672V74.9764ZM44.1457 54.5561C42.9481 55.2127 41.9255 55.7768 40.8384 56.3687C41.9992 57.2843 43.1231 58.1814 44.2747 59.06C44.4036 59.1525 44.7076 59.1802 44.8274 59.097C45.7855 58.3941 46.7251 57.6543 47.6924 56.9144C46.7159 56.1283 45.85 55.4254 44.7076 54.5006V58.8565C44.5879 58.8565 44.4589 58.8565 44.3391 58.8565C44.2747 57.4693 44.2102 56.082 44.1457 54.5653V54.5561ZM59.9725 87.8594C59.4105 87.3969 58.7657 86.8605 58.2037 86.3981C56.2046 88.59 54.2977 90.6894 52.3907 92.7795C52.3631 92.687 52.9619 92.9552 53.2475 92.761C55.4861 91.2073 57.6602 89.5611 59.9725 87.8686V87.8594ZM51.9485 36.9934C52.1144 36.901 52.2894 36.7992 52.4552 36.7067C54.3714 38.8061 56.2783 40.8962 58.2498 43.0604C58.8209 42.5887 59.4658 42.043 60.037 41.5714C57.5865 39.8512 55.2097 38.1865 52.7316 36.4478C52.5473 36.5773 52.2433 36.7807 51.9393 36.9934H51.9485ZM42.4967 87.9056C44.9472 89.6258 47.3239 91.2997 49.7836 93.0292C49.9955 92.8812 50.3087 92.6593 50.6127 92.4373C50.4193 92.5575 50.2258 92.687 50.0324 92.8072C48.1162 90.6801 46.2 88.553 44.2654 86.3981C43.6851 86.8883 43.077 87.4062 42.4967 87.8964V87.9056ZM42.3953 41.5066C43.077 42.0615 43.7403 42.5887 44.3391 43.0789C46.3198 40.887 48.2175 38.7784 50.1153 36.679C50.2719 36.79 50.4285 36.9102 50.5759 37.0212C50.2443 36.8085 49.9126 36.5865 49.6454 36.4108C48.4202 37.3541 47.3239 38.2512 46.1632 39.0743C44.9748 39.9067 43.7311 40.6558 42.3953 41.5159V41.5066ZM44.0075 85.8155C42.902 84.16 41.8887 82.6433 40.8661 81.1173C40.774 81.1451 40.6818 81.1636 40.5897 81.1913C40.5897 83.1427 40.5621 85.0941 40.6081 87.0455C40.6266 87.6374 41.4188 87.8871 41.9624 87.4802C42.6533 86.9715 43.2981 86.3981 44.0075 85.8155ZM43.9983 43.643C43.2705 43.0604 42.6256 42.4777 41.9163 41.9875C41.253 41.5344 40.5989 41.8951 40.5805 42.6997C40.5529 43.9482 40.5713 45.1967 40.5713 46.4545C40.5713 47.0926 40.5713 47.7215 40.5713 48.3597L40.8569 48.3967C41.8794 46.8522 42.8928 45.317 43.9983 43.643ZM58.5169 43.643C59.6224 45.3077 60.645 46.8707 61.6768 48.4244C61.7597 48.3967 61.8426 48.3689 61.9347 48.3504C61.9347 46.3805 61.9992 44.4014 61.8979 42.4315C61.861 41.7101 61.1517 41.6176 60.6266 41.9598C59.8804 42.45 59.2263 43.0604 58.5077 43.643H58.5169ZM58.5354 85.8247C59.1802 86.3611 59.779 86.9345 60.4607 87.3877C60.7463 87.5727 61.2438 87.6189 61.5662 87.5079C61.7597 87.4432 61.9255 86.9623 61.9347 86.6663C61.9716 85.0664 61.9531 83.4756 61.9439 81.8757C61.9439 81.626 61.861 81.3763 61.7689 80.9139C60.6174 82.6525 59.604 84.197 58.5354 85.8247ZM48.5031 63.8506C49.2862 61.9547 50.0324 60.1421 50.7694 58.3571C49.0835 57.3306 48.7979 57.3768 48.1254 58.9675C47.4621 60.549 46.4948 62.1859 48.4939 63.8506H48.5031ZM51.7366 58.4404C52.4736 60.1883 53.2198 61.9732 54.0029 63.8321C55.1452 62.8796 55.5229 61.8992 55.0255 60.6692C54.8228 60.1606 54.6938 59.6057 54.4727 59.1062C53.7357 57.4508 53.6528 57.4323 51.967 58.1814C51.9393 58.1907 51.9209 58.2369 51.7459 58.4496L51.7366 58.4404ZM44.1641 53.7514C43.031 52.2995 42.0453 51.0232 41.0595 49.7562C40.9582 49.7932 40.8477 49.8209 40.7463 49.8579V55.7398C41.9255 55.0462 42.9849 54.4358 44.1549 53.7422L44.1641 53.7514ZM40.7832 79.6098C40.8937 79.6283 41.0043 79.6468 41.1148 79.6653C42.0821 78.4076 43.0494 77.159 44.1549 75.7255C42.9757 75.0411 41.8979 74.4215 40.5989 73.6632C40.6358 75.8735 40.3594 77.7602 40.7832 79.6098ZM51.0549 71.1753C50.2166 69.1315 49.4151 67.1893 48.6229 65.2564C48.4939 65.2564 48.3741 65.2564 48.2452 65.2564C48.0056 65.95 47.4437 66.7269 47.5911 67.328C47.9688 68.8448 48.6597 70.2875 49.2401 71.795C49.9218 71.5638 50.3364 71.4158 51.0641 71.1661L51.0549 71.1753ZM61.6215 55.6751C61.7136 55.6104 61.815 55.5456 61.9071 55.4716C61.6676 53.6035 62.3032 51.6891 61.5754 49.5804C60.4423 51.0694 59.475 52.3457 58.3972 53.7699C59.5211 54.4358 60.5713 55.0555 61.6215 55.6751ZM61.3912 79.6746C61.4925 79.6561 61.6031 79.6468 61.7044 79.6283C62.2019 77.7602 61.7228 75.855 61.9255 73.6354C60.5989 74.4123 59.5487 75.0319 58.4156 75.6978C59.4842 77.1313 60.4331 78.3983 61.382 79.6746H61.3912ZM51.5156 71.0551C53.1277 71.795 53.1461 71.8042 53.7726 70.5187C54.1226 69.8066 54.3714 69.0482 54.703 68.3268C55.2373 67.1616 54.9333 66.1997 53.8923 65.2194C53.0817 67.1985 52.3078 69.1037 51.5156 71.0551ZM48.6505 49.2013C48.5123 49.2105 48.3741 49.2198 48.236 49.229C47.9964 49.8856 47.4805 50.5885 47.5727 51.1989C47.8214 52.8451 48.5584 54.3526 49.7744 55.9341C50.1521 55.4069 50.7878 54.8797 50.6957 54.593C50.1061 52.7619 49.3507 50.9954 48.6505 49.2013ZM53.8186 80.2017C53.9568 80.2017 54.0858 80.1925 54.224 80.1832C54.4819 79.6006 55.0255 78.9717 54.961 78.4261C54.7399 76.7059 54.0397 75.1244 52.9619 73.6632C52.3907 74.0886 51.4511 74.0608 51.838 75.0689C52.4921 76.7798 53.1646 78.4815 53.8279 80.1925L53.8186 80.2017ZM49.6547 73.8111C47.6003 76.151 47.1489 78.5463 48.586 80.359C49.2677 78.6942 49.8942 77.122 50.5575 75.5683C50.9628 74.625 50.7509 74.0423 49.6547 73.8111ZM53.9292 49.1088C53.2383 50.8012 52.5658 52.3272 51.9854 53.8809C51.5156 55.1479 51.5708 55.1942 52.9527 55.6844C54.9149 53.289 55.3295 51.0139 53.9292 49.118V49.1088ZM40.691 62.8703C41.7965 61.816 42.8652 60.7987 44.0351 59.6796C42.9573 58.838 41.9163 58.0242 40.691 57.0716V62.8611V62.8703ZM58.5538 59.6426C59.7053 60.7894 60.7647 61.8438 61.8057 62.8888V57.0809C60.5897 58.0427 59.5579 58.8565 58.5538 59.6426ZM40.7003 66.6991V71.8042C41.9255 71.0921 42.9665 70.4817 43.9062 69.9268C42.7454 68.7523 41.6952 67.698 40.7003 66.6899V66.6991ZM61.8518 66.8934C60.2489 67.4205 59.6132 68.8078 58.2774 69.7511C59.5487 70.4817 60.6266 71.1014 61.8518 71.8042V66.8934ZM44.1825 74.8839V70.5927C43.1323 71.1291 42.0637 71.6655 41.0043 72.2389C40.4792 72.5256 40.4055 72.9325 40.9674 73.247C41.9808 73.8019 43.031 74.3013 44.1825 74.8839ZM55.6703 51.6891C54.9794 53.252 54.3345 54.6948 53.6989 56.1468C54.4543 56.5999 56.2507 55.4531 57.4759 53.6682C56.8863 53.0208 56.2875 52.3642 55.6703 51.6891ZM53.6712 73.321C54.353 74.8562 54.9978 76.2897 55.6611 77.7787C56.2046 77.1775 56.7482 76.6041 57.2733 76.0122C57.3378 75.9382 57.3746 75.8365 57.4207 75.7533C56.2231 74.0053 54.3806 72.8493 53.662 73.321H53.6712ZM44.9287 53.8069C46.0158 54.667 47.0015 55.4716 48.0241 56.2208C48.1899 56.3502 48.5215 56.2855 48.7611 56.2485C48.8071 56.2485 48.8716 55.8786 48.8071 55.7306C48.1623 54.3988 47.499 53.0856 46.808 51.7168C46.2461 52.3364 45.6749 52.9746 44.9195 53.8069H44.9287ZM46.8265 77.7879C47.545 76.2527 48.2175 74.8192 48.89 73.3857C48.1991 72.8678 46.4303 73.9683 45.1038 75.7995C45.6565 76.4377 46.2185 77.0758 46.8265 77.7787V77.7879ZM47.7477 72.5441C46.7528 71.8135 45.8592 71.1661 44.9011 70.4632V74.8007C45.896 74.0146 46.7712 73.3117 47.7477 72.5441ZM48.5031 72.2666C48.5768 72.1834 48.6505 72.1002 48.7242 72.0169C48.1162 70.6112 47.5082 69.2054 46.8541 67.698C46.2553 68.3823 45.7026 69.0112 45.0485 69.7603C46.2553 70.6389 47.3792 71.4528 48.5031 72.2666ZM53.8463 71.9707C53.92 72.0539 53.9937 72.1372 54.0674 72.2204C55.1729 71.4065 56.2783 70.5834 57.4483 69.7141C56.7666 68.9742 56.2046 68.3546 55.6335 67.7442C55.007 69.2147 54.4267 70.5927 53.8371 71.9707H53.8463ZM51.3497 59.1525C51.2852 59.134 51.2208 59.1155 51.1563 59.1062C51.1194 59.3652 50.9997 59.6426 51.0549 59.8739C51.1471 60.2438 51.4695 60.5767 51.4971 60.9467C51.5616 62.038 51.5156 63.1385 51.5156 64.2298H53.4778C52.7408 62.4726 52.0407 60.8172 51.3497 59.1617V59.1525ZM65.8039 66.8841C65.8039 67.698 65.721 68.4563 65.8407 69.1962C65.896 69.5291 66.329 69.8066 66.5869 70.1118C66.8725 69.7973 67.3424 69.5106 67.4068 69.1499C67.5358 68.3823 67.4437 67.587 67.4437 66.8009C66.8817 66.8286 66.4119 66.8564 65.8039 66.8841ZM51.663 81.3115C51.5063 83.0502 51.3589 84.7149 51.2115 86.3889C51.2484 86.3889 51.2945 86.4074 51.3313 86.4074C52.0314 84.7334 52.7316 83.0687 53.4778 81.3115H51.6722H51.663ZM51.3313 53.8902C51.3958 53.4463 51.4879 53.2243 51.4419 53.0301C51.3221 52.5862 51.0365 52.1607 50.9997 51.7168C50.926 50.8012 50.9812 49.8856 50.9812 48.9793H49.1664C49.8758 50.57 50.539 52.0867 51.3405 53.8994L51.3313 53.8902ZM57.522 59.7906C56.5547 59.0508 55.6519 58.3664 54.7399 57.682C54.703 57.7282 54.657 57.7745 54.6201 57.8207C55.0531 59.0045 55.4861 60.1883 55.9467 61.4461C56.4534 60.9189 56.9416 60.401 57.522 59.7906ZM66.1816 64.7385C65.0485 64.3501 63.7219 64.3593 62.469 64.9327C61.9808 65.1547 61.6491 65.7096 61.2438 66.1165C61.815 66.0795 62.4138 66.1442 62.9389 65.9685C64.0628 65.6078 65.1498 65.1362 66.1816 64.7292V64.7385ZM50.797 68.632C50.8523 68.6135 50.9168 68.5951 50.972 68.5766C50.972 67.8459 50.972 67.1153 50.972 66.3847C50.972 64.7385 50.8062 64.6183 49.148 65.0899C49.7007 66.2737 50.2443 67.4483 50.7878 68.632H50.797ZM46.5501 61.4461C47.0199 60.1606 47.4437 58.9768 47.978 57.497C46.8541 58.3664 45.9697 59.0415 45.0208 59.7814C45.592 60.401 46.0434 60.9004 46.5501 61.4553V61.4461ZM50.972 76.9371C50.9168 76.9371 50.8523 76.9371 50.797 76.9278C50.2535 78.1116 49.7099 79.2861 49.1572 80.4792C50.9075 80.8399 50.9812 80.7936 50.9812 79.2122C50.9812 78.4538 50.9812 77.6954 50.9812 76.9371H50.972ZM48.9729 64.2113H50.797V60.4195C50.7417 60.4195 50.6957 60.4195 50.6404 60.4195C50.0969 61.6495 49.5533 62.8888 48.9729 64.2113ZM48.9914 81.3208C49.5994 82.6988 50.1429 83.9288 50.6772 85.1496C50.7417 85.1311 50.8062 85.1034 50.8707 85.0849V81.3208H48.9914ZM51.6353 80.5254H53.4317C52.8421 79.2861 52.3078 78.1671 51.7735 77.048C51.7274 77.0665 51.6814 77.0943 51.6353 77.1128V80.5254ZM51.6445 68.3361C51.6998 68.3453 51.7551 68.3638 51.8104 68.3731C52.3262 67.254 52.8421 66.1442 53.3857 64.9604H51.6445V68.3361ZM51.6537 52.3734C51.6537 52.3734 51.7459 52.3919 51.7919 52.3919C52.3078 51.2821 52.8145 50.1631 53.3672 48.9608H51.6537V52.3642V52.3734ZM67.5911 63.2218C67.3424 62.4356 67.1858 61.816 66.9278 61.2334C66.8817 61.1316 66.1816 61.1501 66.1263 61.2611C65.8868 61.816 65.7578 62.4172 65.5644 63.1015C66.2922 63.1385 66.762 63.1663 67.5911 63.2125V63.2218ZM51.2576 34.1727C50.8246 34.8016 50.4746 35.3102 50.1429 35.8004C51.3129 36.8455 51.3774 36.8455 52.3631 35.7634C52.0314 35.2917 51.6998 34.8108 51.2576 34.1819V34.1727ZM50.1245 93.6766C50.493 94.2037 50.8431 94.6846 51.2668 95.2765C51.6906 94.6662 52.0314 94.1667 52.3539 93.6951C51.6261 92.7147 50.926 92.7148 50.1245 93.6766ZM52.5381 56.5537C51.6261 55.6196 50.9352 55.5641 50.1798 56.3965C50.5206 56.8311 50.8431 57.2566 51.2023 57.7282C51.7827 57.2196 52.1328 56.9051 52.5381 56.5537ZM50.3548 72.8215C51.2392 73.9313 51.3774 73.9221 52.1788 72.6921C51.9301 72.4516 51.663 72.2019 51.3313 71.8875C50.972 72.2297 50.6588 72.5256 50.3548 72.8215ZM51.4511 97.4684C51.3313 97.4592 51.2115 97.4499 51.0918 97.4314C51.0365 97.9956 50.9628 98.5505 50.9444 99.1146C50.9444 99.2348 51.1286 99.3551 51.2208 99.4753C51.3497 99.3458 51.58 99.2256 51.58 99.0961C51.58 98.5505 51.4971 98.0048 51.4511 97.4592V97.4684ZM51.0734 31.9901C51.1931 31.9901 51.3129 31.9993 51.4419 32.0086C51.4879 31.4722 51.5616 30.9358 51.58 30.3994C51.58 30.2976 51.3774 30.1034 51.2668 30.0942C51.1655 30.0942 50.9628 30.2884 50.9628 30.3994C50.972 30.9358 51.0365 31.4629 51.0826 31.9993L51.0734 31.9901Z" fill="white"/>
<path d="M51.2484 108.983C47.5451 108.983 43.8325 108.964 40.1291 108.992C39.2355 108.992 38.9131 108.696 38.9407 107.78C38.996 106.217 38.9131 104.654 38.9131 103.082C38.9131 101.658 40.341 100.761 41.5755 101.38C44.1365 102.666 46.9278 102.823 49.6915 102.842C52.2526 102.869 54.8228 102.721 57.3654 102.444C58.6459 102.305 59.8896 101.76 61.1056 101.279C62.0729 100.9 63.6298 101.75 63.639 102.805C63.6667 104.442 63.6574 106.069 63.639 107.706C63.6206 108.983 63.51 109.094 62.1743 109.094C58.5354 109.103 54.8965 109.094 51.2576 109.094C51.2576 109.047 51.2576 109.01 51.2576 108.964L51.2484 108.983ZM61.9439 103.027C54.7583 105.08 47.7293 105.108 40.5713 102.999C40.5713 104.09 40.6174 105.191 40.5529 106.282C40.5068 107.124 40.7556 107.438 41.6491 107.42C43.768 107.392 45.8776 107.503 47.9965 107.503C52.4 107.503 56.8127 107.503 61.2162 107.447C61.4557 107.447 61.8979 107.068 61.9071 106.855C61.9716 105.579 61.9439 104.294 61.9439 103.017V103.027ZM62.0913 108.418C62.0913 108.317 62.0913 108.215 62.0913 108.113H40.4055C40.4055 108.215 40.4055 108.317 40.4055 108.418H62.1006H62.0913ZM41.1148 102.111C43.5469 104.58 59.4474 104.562 61.3451 102.111C54.6386 104.007 47.8859 103.979 41.1148 102.111ZM62.6717 107.706C62.7546 107.706 62.8375 107.706 62.9205 107.706V103.156C62.8375 103.156 62.7546 103.156 62.6717 103.156V107.706ZM39.8527 103.23L39.6224 103.212V107.531H39.8527V103.221V103.23Z" fill="white"/>
<path d="M51.2945 20.3648C55.0439 20.3648 58.7841 20.3833 62.5336 20.3463C63.3166 20.3463 63.6114 20.6423 63.6114 21.3636C63.6114 23.1763 63.6667 24.9797 63.6298 26.7924C63.6114 27.708 61.944 28.6143 61.1609 28.1797C59.2171 27.1161 57.0891 26.8294 54.9426 26.6907C51.2669 26.4595 47.5911 26.4502 43.9615 27.1993C43.0955 27.3751 42.2572 27.7635 41.4465 28.1427C40.5161 28.5773 38.9407 27.782 38.9223 26.7462C38.8855 24.9058 38.9499 23.0561 38.9684 21.2064C38.9684 20.5035 39.4382 20.4758 39.9633 20.4758C43.7404 20.4758 47.5266 20.4758 51.3037 20.4758V20.3556L51.2945 20.3648ZM40.5897 26.4317C47.7754 24.3786 54.8136 24.4063 61.8887 26.4132V22.1127H40.5897V26.4317ZM62.1651 21.3636C62.1651 21.2619 62.1651 21.1602 62.1651 21.0677H40.4147C40.4147 21.1694 40.4147 21.2711 40.4147 21.3636H62.1651ZM41.1241 27.3658C47.8583 25.4514 54.6294 25.4144 61.3544 27.3288C59.9909 24.841 42.0177 24.9705 41.1241 27.3658ZM62.9297 21.7428C62.8468 21.7428 62.7639 21.7613 62.6902 21.7706V26.3023C62.7731 26.3023 62.856 26.3023 62.9297 26.3023V21.7521V21.7428ZM39.5856 26.2468C39.6593 26.2468 39.733 26.2468 39.8159 26.2468V21.8908C39.7422 21.8908 39.6685 21.8908 39.5856 21.8908V26.2468Z" fill="white"/>
<path d="M74.0765 65.7558C74.0765 66.9766 74.095 68.0864 74.0765 69.1962C74.0581 70.1488 73.4593 70.7314 72.5933 70.7314C71.709 70.7314 71.2207 70.1673 71.2207 69.1407C71.2207 66.8471 71.2207 64.5443 71.2299 62.2507C71.2299 61.1316 71.7919 60.4565 72.6763 60.475C73.5699 60.4935 74.1226 61.1779 74.1226 62.2692C74.1226 62.7501 74.1226 63.2403 74.1226 63.8229H75.7348C75.7348 63.453 75.7348 63.0461 75.7348 62.6484C75.6887 53.1411 75.6795 43.6338 75.5781 34.1265C75.5597 32.7207 76.0848 31.8236 77.1442 31.0653C79.2723 29.5485 81.6951 28.8549 84.2378 28.5775C88.3004 28.1335 92.363 28.1243 96.223 29.678C97.4759 30.1867 98.6182 31.0468 99.6961 31.8976C100.101 32.2213 100.359 32.9704 100.359 33.5253C100.359 47.703 100.295 61.8715 100.286 76.0492C100.286 82.6341 100.332 89.2096 100.405 95.7945C100.415 96.7193 100.129 97.3759 99.4381 97.9586C97.7707 99.3736 95.8453 100.197 93.7357 100.594C89.1387 101.464 84.5418 101.501 80.083 99.9192C78.7748 99.4568 77.6141 98.5597 76.4349 97.7829C75.7992 97.3667 75.5966 96.6916 75.6058 95.8777C75.6795 86.4444 75.6887 77.0018 75.7716 67.5685C75.7808 66.3847 75.3018 65.9408 74.0857 65.7743L74.0765 65.7558ZM81.0319 58.9583C81.2069 59.0138 81.4556 59.1803 81.5385 59.1248C82.4782 58.4404 83.3902 57.7098 84.3667 56.9606C83.4455 56.2023 82.5795 55.4994 81.5846 54.6856C81.5846 55.9248 81.6214 57.0254 81.557 58.1167C81.5385 58.4126 81.1977 58.6993 81.0042 58.986V54.4821C79.7329 55.185 78.6827 55.7584 77.5127 56.4057C78.7103 57.2843 79.8711 58.1259 81.0226 58.9675L81.0319 58.9583ZM95.007 52.7341C94.8412 52.3642 94.5279 51.9943 94.5187 51.6151C94.4727 49.303 94.5003 47.0002 94.5003 44.6233C92.8329 45.6869 92.5104 46.399 92.8329 48.147C93.1369 48.2579 93.4225 48.3597 93.7173 48.4614C93.7173 48.5354 93.6988 48.6094 93.6896 48.6741C93.3764 48.7759 93.0724 48.8776 92.667 49.0163C92.667 49.6175 92.4644 50.3573 92.7131 50.8752C93.0816 51.6336 93.7541 52.244 94.3437 52.8729C94.4174 52.9561 94.7675 52.7804 94.9886 52.7157C95.8914 51.5781 96.8034 50.4591 97.697 49.3123C97.7983 49.1828 97.8444 48.8961 97.7707 48.7666C97.0061 47.4718 96.2046 46.1956 95.4215 44.9193C95.2926 44.947 95.1544 44.984 95.0254 45.0118V52.7434L95.007 52.7341ZM76.7942 66.9304C76.6652 66.9304 76.5362 66.9211 76.4073 66.9119C76.3888 67.2078 76.352 67.5038 76.352 67.7997C76.3059 76.6134 76.3888 85.4271 76.1585 94.2407C76.094 96.7933 77.1719 98.0418 79.2078 98.9204C79.9356 99.2349 80.691 99.5308 81.4556 99.7343C85.9144 100.918 90.4008 100.89 94.8227 99.651C96.223 99.2626 97.4943 98.384 98.7748 97.6441C99.5487 97.2002 99.7974 96.4511 99.7882 95.517C99.7237 88.553 99.6776 81.5798 99.6776 74.6157C99.6776 67.1616 99.7237 59.7074 99.7421 52.2532C99.7605 46.436 99.6592 40.6096 99.8343 34.8016C99.8987 32.804 99.0604 31.7311 97.5127 30.9635C96.527 30.4734 95.4952 30.0017 94.4358 29.7335C90.5482 28.7439 86.6145 28.7069 82.6716 29.4468C80.7739 29.7982 79.0051 30.4826 77.4298 31.6387C76.5915 32.2583 76.1493 32.9889 76.2046 34.108C76.3059 36.1241 76.2691 38.1495 76.2783 40.1656C76.3059 47.7955 76.3243 55.4254 76.352 63.0553C76.352 63.3883 76.4165 63.7212 76.4533 64.0541C76.5454 64.0449 76.6376 64.0356 76.7297 64.0264C76.7297 62.8334 76.7297 61.6311 76.7297 60.438C76.7113 52.0035 76.8034 43.569 76.6099 35.1438C76.5547 32.8779 77.5312 31.8329 79.2907 31.0375C79.6408 30.8803 79.9909 30.7323 80.3501 30.6028C84.0351 29.2618 87.8306 29.2248 91.6537 29.6318C94.0581 29.8907 96.3428 30.5844 98.3418 32.0271C99.042 32.5265 99.3921 33.1092 99.3552 34.0432C99.2631 36.4478 99.2815 38.8524 99.2723 41.2569C99.2723 51.7076 99.2631 62.1582 99.2723 72.6089C99.2723 79.9243 99.217 87.2397 99.3828 94.5552C99.4289 96.5251 98.6182 97.5239 97.0798 98.2823C96.7665 98.4395 96.4533 98.5875 96.1309 98.7169C92.1419 100.308 88.0148 100.409 83.8416 99.8268C81.4464 99.4938 79.1525 98.7909 77.2916 97.1447C76.9692 96.858 76.6744 96.3401 76.6744 95.9332C76.6836 87.1195 76.7389 78.3058 76.785 69.4922C76.785 68.6413 76.785 67.7997 76.785 66.9489L76.7942 66.9304ZM90.2073 36.0131C92.4644 37.9275 94.6569 39.6107 97.1811 40.8038C97.7891 41.0905 98.6919 40.4616 98.7011 39.731C98.738 37.6778 98.738 35.6247 98.7011 33.5623C98.7011 32.9519 98.3511 32.5542 97.6878 32.73C95.1083 33.4421 92.6394 34.4224 90.1981 36.0039L90.2073 36.0131ZM85.767 36.0409C83.3257 34.4502 80.82 33.4143 78.1576 32.7577C77.9365 32.7022 77.3101 33.2941 77.3009 33.5993C77.2364 35.6524 77.264 37.7056 77.3009 39.7587C77.3193 40.4893 78.2129 41.0905 78.8301 40.8038C81.3543 39.62 83.5376 37.9275 85.767 36.0501V36.0409ZM85.6288 93.5841C85.6749 93.4361 85.7209 93.2882 85.7578 93.1402C83.5008 91.679 81.2714 90.1807 78.9867 88.7657C78.2866 88.3311 77.3193 88.8675 77.3009 89.6628C77.2548 91.7437 77.2732 93.8338 77.3009 95.9147C77.3009 96.4604 77.5956 96.8858 78.2313 96.7193C80.8476 96.0349 83.3257 95.0084 85.6196 93.5934L85.6288 93.5841ZM90.1889 93.4546C92.6763 94.9991 95.1544 96.0349 97.7799 96.7101C98.5353 96.9043 98.7288 96.2939 98.7288 95.702C98.738 93.7228 98.738 91.7437 98.7011 89.7645C98.6827 88.9507 97.8075 88.3773 97.0798 88.7195C94.5832 89.8848 92.4367 91.568 90.1889 93.4639V93.4546ZM94.7398 69.3812C96.0019 68.0309 97.2364 66.8101 98.3234 65.4784C98.5722 65.1732 98.5629 64.3038 98.3142 63.9801C97.4114 62.8241 96.3428 61.7883 95.3386 60.7062C95.2281 60.7432 95.1175 60.7802 94.9978 60.8172V68.5673C94.878 68.5673 94.7582 68.5673 94.6385 68.5673V60.3733C93.5146 61.4368 92.2433 62.3247 92.7776 64.1374C93.0724 64.2668 93.3856 64.3963 93.9844 64.6553C93.3395 64.8217 93.0263 64.905 92.796 64.9697C91.8748 67.1338 93.6067 67.9939 94.7306 69.3904L94.7398 69.3812ZM85.2419 47.7678C86.1355 45.6592 87.0199 43.5783 87.8951 41.5067C87.9872 41.5067 88.0701 41.5067 88.1622 41.5159C89.0097 43.569 89.8665 45.6314 90.714 47.6846C90.8154 47.6846 90.9259 47.703 91.0272 47.7123C91.3497 47.0927 92.013 46.4453 91.9485 45.8719C91.6905 43.5968 90.8061 41.5806 88.8255 40.2211C88.2912 39.8604 87.8306 39.8512 87.3055 40.2119C85.8315 41.2015 84.901 42.5702 84.3114 44.2349C83.8508 45.5297 83.8416 46.6765 85.2419 47.7678ZM85.2787 81.7462C85.159 81.737 85.0484 81.7185 84.9287 81.7092C84.6155 82.3659 83.989 83.0502 84.0535 83.6699C84.2746 85.9727 85.2972 87.9149 87.2962 89.2374C87.8766 89.6258 88.3649 89.5611 88.9084 89.1726C90.4653 88.0721 91.2391 86.4814 91.8103 84.7242C92.2156 83.4757 91.7919 82.5971 90.7601 81.6815C89.8665 83.8364 89.0005 85.908 88.1438 87.9796C88.0517 87.9611 87.9595 87.9519 87.8674 87.9334C87.0014 85.871 86.1355 83.8086 85.2787 81.7462ZM81.3911 68.5488C81.2529 68.5488 81.1056 68.5488 80.9674 68.5581V60.771C80.866 60.734 80.7647 60.7062 80.6634 60.6692C79.5487 61.8623 78.4432 63.0553 77.2087 64.3686C78.1944 64.8772 78.867 65.4136 78.6459 66.4772C78.6274 66.5789 78.738 66.7362 78.8301 66.8286C79.6316 67.6332 80.4423 68.4286 81.299 69.2795C81.8149 68.7246 82.2571 68.2899 82.6532 67.809C83.8232 66.3847 83.7311 65.4784 82.2755 64.5166C82.6072 64.3593 82.902 64.2206 83.1323 64.1096C83.7771 62.2322 82.3861 61.4276 81.3911 60.3455V68.5396V68.5488ZM86.9185 99.4661C87.0475 98.6245 87.0199 97.8753 87.2962 97.2742C87.7937 96.1921 87.3423 95.4338 86.7619 94.6199C86.3842 94.0928 86.0802 94.0188 85.4906 94.3425C84.1548 95.0639 82.773 95.7112 81.3819 96.3309C80.5436 96.7008 79.6592 96.9598 78.5906 97.3297C81.2898 98.9112 84.0351 99.3458 86.9185 99.4661ZM97.1535 97.4777C94.7767 96.3679 92.4644 95.2858 90.1521 94.213C90.0139 94.1483 89.7283 94.0928 89.6915 94.1575C89.2493 94.8419 88.5399 95.5355 88.5123 96.2476C88.4662 97.3019 88.9084 98.3748 89.1479 99.4846C91.9853 99.3366 94.7122 98.9297 97.1535 97.4777ZM87.0107 30.0295C84.0259 30.1034 81.2898 30.5566 78.7748 32.0271C81.3543 33.1554 83.814 34.2374 86.246 35.3103C88.4939 33.923 86.9185 31.9439 87.0107 30.0295ZM89.6915 35.3473C92.2249 34.2282 94.6753 33.1461 97.2087 32.0271C96.7942 31.8051 96.398 31.4907 95.9559 31.3797C94.1871 30.9265 92.4183 30.4364 90.6311 30.1312C89.1295 29.8815 89.1111 29.9832 88.89 31.4722C88.8531 31.7126 88.8347 31.9624 88.7334 32.1843C88.0517 33.6178 88.936 34.5149 89.7099 35.3473H89.6915ZM81.3819 52.5307C81.2437 52.5307 81.1148 52.5307 80.9766 52.5307V44.9563C80.8476 44.9378 80.7186 44.91 80.5989 44.8916C79.8342 46.1216 79.0512 47.3424 78.305 48.5816C78.2037 48.7574 78.1484 49.0995 78.2497 49.2383C79.217 50.57 80.2212 51.8833 81.2806 53.2706C81.7504 52.7711 82.1465 52.4197 82.4506 52.0035C82.8283 51.4856 83.3073 50.94 83.4179 50.3388C83.556 49.5527 83.381 48.7204 82.036 48.5909C84.0811 47.8973 83.3441 45.7424 81.3911 44.4569V52.5307H81.3819ZM81.2345 76.2435C80.2212 77.5937 79.2354 78.8792 78.2681 80.1925C78.176 80.322 78.1484 80.6179 78.2313 80.7567C79.0051 82.0422 79.8066 83.3184 80.5989 84.5947L80.995 84.493V76.9463C81.17 76.9463 81.3451 76.9463 81.5201 76.9463V84.9647C83.2336 83.5589 83.3718 83.2815 83.1783 81.4225C82.8927 81.2838 82.6164 81.1358 82.2571 80.9601C84.3575 79.9983 83.5192 78.1856 81.2345 76.2435ZM95.4031 84.53C96.1769 83.2815 96.9692 82.0329 97.7246 80.7659C97.8167 80.6179 97.7707 80.2757 97.6601 80.1278C96.7113 78.8515 95.7255 77.5937 94.6753 76.225C94.1318 76.8169 93.6528 77.307 93.2198 77.8342C92.1512 79.1567 92.2801 80.0908 93.7265 80.9879C93.3856 81.1451 93.0908 81.2838 92.8052 81.4225C92.5933 83.152 93.1185 84.1785 94.6016 84.7519V76.9741C94.7306 76.9741 94.8688 76.9741 94.9978 76.9648C95.2741 79.4434 94.9701 81.9589 95.4123 84.5392L95.4031 84.53ZM92.6026 83.9936C92.4552 84.5485 92.3815 84.9277 92.2617 85.2883C91.6537 87.2397 90.6588 88.8952 88.8347 89.9495C88.2912 90.264 87.849 90.2547 87.2962 89.9495C85.4354 88.9044 84.3299 87.286 83.7034 85.2883C83.5837 84.9092 83.4823 84.5207 83.3257 84.0121C82.6901 84.6964 82.165 85.2514 81.4833 85.9912C83.6113 88.0444 85.7209 90.079 87.9964 92.2801C90.2626 90.0697 92.3538 88.0351 94.4542 85.982C93.7357 85.2236 93.2198 84.6687 92.5933 84.0028L92.6026 83.9936ZM83.2981 45.3817C83.6205 44.4476 83.8048 43.6615 84.1548 42.9586C84.5233 42.2188 84.9195 41.4234 85.5091 40.887C87.8121 38.7506 88.2728 38.6119 90.41 40.85C91.1746 41.6454 91.6076 42.7737 92.1235 43.791C92.363 44.2627 92.4367 44.8083 92.6302 45.4742C93.2659 44.7898 93.8002 44.2164 94.445 43.532C93.0355 42.0985 91.7642 40.6096 90.2995 39.361C87.5081 36.9935 88.4754 36.9935 85.7209 39.3425C84.2378 40.6096 82.9664 42.117 81.5662 43.5505C82.2295 44.2534 82.7269 44.7713 83.3073 45.3817H83.2981ZM94.9149 74.9764C96.1862 74.3198 97.1442 73.8481 98.0747 73.3302C98.305 73.2008 98.5537 72.9418 98.609 72.7013C98.6366 72.5719 98.305 72.3037 98.0931 72.1742C97.1442 71.61 96.1769 71.0551 95.2004 70.5372C94.9701 70.4077 94.5648 70.2875 94.399 70.3985C93.4409 71.0644 92.5289 71.795 91.5431 72.5441C92.492 73.3117 93.3672 74.0146 94.4819 74.9209V70.5465C94.6293 70.5465 94.7767 70.5465 94.9149 70.5465V74.9764ZM81.0503 70.5835C81.1885 70.5835 81.3359 70.5835 81.474 70.5835V74.8839C82.598 73.9776 83.4823 73.247 84.4128 72.4979C83.3441 71.684 82.3492 70.9257 81.4556 70.2413C80.1567 70.9441 78.9499 71.6008 77.7338 72.2482C77.2364 72.5164 77.1535 72.9141 77.6233 73.1915C78.6643 73.7926 79.7513 74.2921 81.0503 74.9579V70.5835ZM91.5431 56.9237C92.667 57.7653 93.6804 58.5329 94.6938 59.3005C95.9466 58.3109 97.1627 57.3583 98.4155 56.378C97.2916 55.7676 96.223 55.185 94.8872 54.4543V58.8936C94.749 58.8936 94.6016 58.8936 94.4635 58.8843V54.5468C93.3672 55.4347 92.5012 56.1375 91.5431 56.9144V56.9237ZM89.194 36.679C91.1194 38.7969 93.0448 40.9148 94.9978 43.0511C95.5781 42.561 96.2138 42.0431 96.7573 41.5899C94.5832 40.0269 92.4183 38.5379 90.3455 36.938C89.6638 36.4108 89.2493 36.3738 89.2032 36.6883L89.194 36.679ZM86.8541 92.7795C84.9102 90.6709 82.9572 88.5715 80.9766 86.4259C80.4331 86.8883 79.7882 87.434 79.2539 87.8779C81.4464 89.4686 83.6021 90.9298 85.6288 92.539C86.3289 93.0939 86.7251 93.0847 86.8448 92.7795H86.8541ZM80.9766 43.0326C82.9572 40.8593 84.8826 38.7691 86.7988 36.6698C86.9738 36.79 87.1396 36.9195 87.3147 37.0397C86.9922 36.8177 86.6698 36.5958 86.4948 36.4663C83.989 38.2142 81.6214 39.8789 79.2262 41.5529C79.8066 42.0338 80.4331 42.5702 80.9858 43.0234L80.9766 43.0326ZM94.9793 86.4166C92.9618 88.6085 91.0365 90.7079 89.1111 92.8073C89.2401 93.0292 89.6454 93.0847 90.3455 92.5298C92.3999 90.9206 94.5556 89.4408 96.7205 87.8871C96.1769 87.4247 95.5505 86.8976 94.9793 86.4166ZM95.2741 85.834C95.9559 86.3889 96.5915 86.9715 97.2824 87.471C97.9826 87.9796 98.6459 87.6189 98.6643 86.7496C98.6827 85.1219 98.6735 83.4849 98.6643 81.8572C98.6643 81.6075 98.5814 81.3578 98.4985 80.9139C97.3838 82.6156 96.3888 84.1415 95.2833 85.834H95.2741ZM98.434 48.4429C98.5353 48.2579 98.6182 48.1747 98.6182 48.0822C98.6459 46.2141 98.6827 44.3366 98.6366 42.4685C98.6366 42.2465 98.001 41.7934 97.9181 41.8581C97.0429 42.413 96.2138 43.0511 95.3847 43.6985C95.3386 43.7355 95.4492 44.013 95.5413 44.1517C96.481 45.5574 97.4206 46.9539 98.434 48.4522V48.4429ZM80.7278 85.8248C79.65 84.197 78.6274 82.6526 77.6049 81.1173L77.3009 81.1728C77.3009 83.1335 77.2364 85.1034 77.3377 87.064C77.3745 87.7484 78.0839 87.8779 78.609 87.5264C79.346 87.0363 80.0093 86.4166 80.7278 85.8248ZM77.3285 48.3227C77.4206 48.3319 77.5127 48.3412 77.5957 48.3504C78.6182 46.806 79.6316 45.2615 80.7094 43.6338C80.0093 43.0604 79.3736 42.4685 78.6735 41.9783C77.9918 41.5067 77.3009 41.9136 77.2916 42.7552C77.2824 43.6615 77.3193 44.5586 77.3285 45.4649C77.3285 46.4175 77.3285 47.3701 77.3285 48.3134V48.3227ZM98.6827 55.8786C98.5629 53.6497 98.8946 51.7261 98.3603 49.5157C97.1719 51.0694 96.1862 52.3457 95.1083 53.7515C96.2506 54.4358 97.3009 55.0647 98.6735 55.8878L98.6827 55.8786ZM80.8476 53.7607C79.7606 52.3457 78.7748 51.0602 77.7983 49.7839C77.6878 49.8394 77.5772 49.8857 77.4759 49.9411V55.7676C78.6919 55.0462 79.7513 54.4174 80.8568 53.7607H80.8476ZM98.3234 79.9428C98.9222 77.7509 98.5537 75.8273 98.6827 73.6077C97.3193 74.4215 96.2599 75.0597 95.1267 75.744C96.223 77.1868 97.1811 78.4446 98.3234 79.952V79.9428ZM85.2419 63.8507C86.0434 61.9363 86.7988 60.1328 87.545 58.3387C85.6472 57.3953 85.4998 57.4416 84.7536 59.1895C84.5602 59.6334 84.4312 60.1051 84.2562 60.5583C83.7587 61.8068 84.0535 62.8518 85.2419 63.8507ZM77.5957 73.7926C77.5035 73.8666 77.4114 73.9314 77.3193 74.0054C77.4575 75.8643 77.089 77.7602 77.5312 79.6006L77.8628 79.6284C78.8117 78.3613 79.7605 77.1035 80.8292 75.6886C79.6961 75.0227 78.6459 74.403 77.5957 73.7834V73.7926ZM90.7417 63.8137C91.9485 62.8334 92.2433 61.8068 91.7182 60.549C91.5063 60.0403 91.3773 59.4947 91.147 58.986C90.4192 57.3676 90.0784 57.2843 88.5031 58.3756C89.2308 60.1421 89.9678 61.927 90.7417 63.8137ZM85.3432 65.2194C84.247 66.2645 84.0351 67.2263 84.5418 68.3454C84.8734 69.076 85.1129 69.8436 85.463 70.5557C86.0986 71.8505 86.2368 71.8597 87.7016 70.9719C86.9462 69.1222 86.1723 67.2448 85.3432 65.2194ZM85.9973 55.7769C86.1631 55.7954 86.329 55.8139 86.4948 55.8416C86.8264 55.4624 87.4989 55.0185 87.4344 54.7225C87.0291 52.8081 86.2645 51.014 85.0669 49.3308C84.7076 49.9781 84.1825 50.7088 84.3207 51.2637C84.726 52.8081 85.4169 54.2786 85.9881 55.7769H85.9973ZM85.2972 80.3682C86.0065 78.6388 86.6606 77.1313 87.241 75.5868C87.7292 74.3013 87.6832 74.2736 86.3013 73.7926C84.4128 75.8828 83.9061 78.4723 85.288 80.3682H85.2972ZM80.6081 59.5779C79.7145 58.8751 78.6643 58.0335 77.4298 57.0624V62.8056C78.4616 61.7513 79.475 60.7247 80.6081 59.5687V59.5779ZM89.7283 71.7118C91.7182 69.1592 92.1051 66.8194 90.6127 65.2657C89.802 67.2911 89.0282 69.2147 88.2359 71.1846C88.8992 71.4158 89.2861 71.5545 89.7283 71.7118ZM90.539 80.137C90.7417 80.137 90.9351 80.137 91.1378 80.1278C91.3036 79.3971 91.755 78.6018 91.5892 77.9637C91.2668 76.7059 90.6311 75.5221 90.0507 74.3383C89.9402 74.1256 89.369 73.8944 89.2216 73.9961C88.9176 74.1903 88.4939 74.699 88.5768 74.9209C89.1756 76.6781 89.8757 78.4076 90.5482 80.1463L90.539 80.137ZM98.5629 62.8426V57.0531C97.3377 58.0242 96.2967 58.8473 95.3018 59.6334C96.4257 60.7432 97.4575 61.7513 98.5629 62.8426ZM89.6178 55.6381C91.6537 53.2706 92.1235 50.755 90.6311 49.2383C89.9678 50.8475 89.3598 52.3735 88.715 53.8902C88.3188 54.815 88.4939 55.4162 89.6178 55.6381ZM85.7301 48.2025H87.7016C87.7016 47.3886 87.6832 46.6672 87.7016 45.9366C87.7292 45.2522 87.8029 44.5679 87.849 43.8742C87.9872 43.8742 88.1254 43.8742 88.2728 43.8835V48.2025H90.2534C89.4888 46.3898 88.7702 44.6788 88.0056 42.8569C87.2225 44.6788 86.4948 46.3898 85.7209 48.1932L85.7301 48.2025ZM98.5445 71.8135V66.5789C97.4298 67.6795 96.398 68.7061 95.2281 69.8621C96.2875 70.4817 97.3285 71.1014 98.5445 71.8135ZM77.4022 71.8228C78.6459 71.0921 79.7145 70.4632 81.0042 69.7141C79.5855 68.854 79.0604 67.328 77.4022 67.0044V71.832V71.8228ZM94.3068 75.6701C93.229 74.8192 92.2249 73.9869 91.1839 73.2285C90.9904 73.0898 90.6035 73.21 90.2718 73.21C91.0365 74.884 91.6997 76.3174 92.3815 77.8064C92.9895 77.1313 93.5791 76.4839 94.3068 75.6701ZM92.3999 51.7446C91.7458 53.0856 91.1194 54.3526 90.5206 55.6289C90.4377 55.8046 90.4192 56.1653 90.5206 56.2393C90.668 56.3503 91.018 56.378 91.1654 56.2763C92.2249 55.4809 93.2658 54.6486 94.3161 53.8255C93.6159 53.0301 93.0908 52.429 92.5657 51.8371C92.5196 51.7908 92.4459 51.7723 92.4091 51.7446H92.3999ZM85.5643 73.284C84.7721 72.9048 82.9664 74.0886 81.7965 75.7995C82.3769 76.4469 82.9664 77.1035 83.5745 77.7694C84.247 76.2527 84.8918 74.8007 85.5643 73.284ZM85.5828 56.193C84.9103 54.6763 84.2746 53.2243 83.5837 51.6706C83.2889 52.0128 82.9941 52.3365 82.7085 52.6694C82.3953 53.0301 82.0913 53.3815 81.7873 53.733C83.1783 55.5271 84.7168 56.526 85.5735 56.193H85.5828ZM90.5574 72.0262C90.6219 72.1094 90.6864 72.1834 90.7509 72.2667C91.8748 71.4436 93.0079 70.6205 94.1963 69.7604C93.533 69.0112 92.9711 68.3731 92.3815 67.7072C91.7458 69.2055 91.147 70.6205 90.5574 72.0262ZM85.1866 72.2297L85.4077 71.9522C84.8181 70.5742 84.2377 69.1962 83.6021 67.7072C82.9941 68.4101 82.4506 69.0482 81.8241 69.7696C83.0217 70.6482 84.1088 71.4436 85.1866 72.2389V72.2297ZM71.8195 66.8379C71.8195 67.6795 71.7458 68.4841 71.8564 69.2702C71.8932 69.5754 72.3078 70.0378 72.5841 70.0563C72.8421 70.0748 73.3488 69.6494 73.3856 69.3719C73.4962 68.5396 73.4225 67.6795 73.4225 66.8379H71.8195ZM87.5542 64.2483C87.7384 62.4449 87.9043 60.7617 88.0701 59.0785C88.0332 59.0785 87.9872 59.0693 87.9503 59.06C87.2318 60.7617 86.504 62.4542 85.7394 64.2483H87.5542ZM73.1553 64.7663C74.1226 65.1454 75.2097 65.5709 76.2967 65.9963C76.6191 66.1165 76.9324 66.2922 77.264 66.3292C77.4943 66.357 77.7523 66.1997 78.001 66.1258C77.9089 65.8853 77.872 65.5709 77.697 65.4229C76.7573 64.5998 74.141 64.0726 73.1461 64.7663H73.1553ZM91.4971 57.6728C91.451 57.7283 91.405 57.7745 91.3589 57.83C91.7827 59.0138 92.2156 60.1883 92.6763 61.4831C93.1921 60.9282 93.6712 60.401 94.2424 59.7814C93.2751 59.0415 92.3815 58.3571 91.4971 57.682V57.6728ZM90.281 64.2483C89.673 62.8518 89.1387 61.6218 88.6044 60.3918C88.5399 60.4103 88.4662 60.4288 88.4017 60.4473V64.2391H90.2903L90.281 64.2483ZM81.7596 59.7536C82.3492 60.3455 82.8375 60.8357 83.3349 61.3259C83.7771 60.0958 84.2009 58.9305 84.726 57.497C83.6297 58.3294 82.7454 59.0045 81.7688 59.7444L81.7596 59.7536ZM88.4294 81.3023V85.1034C88.4939 85.1034 88.5491 85.1219 88.6136 85.1311C89.1479 83.8918 89.673 82.6433 90.2442 81.3023H88.4294ZM87.674 81.367H85.7578C86.3934 82.8005 86.9646 84.1046 87.545 85.3993C87.591 85.3808 87.6279 85.3623 87.674 85.3438V81.367ZM90.1797 80.5624C89.5533 79.2214 88.9913 78.0284 88.3557 76.6596V80.5624H90.1797ZM85.8223 64.979C86.4119 66.2367 86.9646 67.402 87.5081 68.5673C87.5542 68.5581 87.6003 68.5488 87.6463 68.5303V64.979H85.8223ZM87.6279 80.5809V76.7151C86.9646 78.1486 86.4211 79.3232 85.8407 80.5809H87.6279ZM88.3557 68.8633C88.9913 67.4575 89.5348 66.2645 90.1152 64.979H88.3557V68.8633ZM87.6463 52.8359V48.9793H85.8407C86.4303 50.2463 86.983 51.4209 87.6463 52.8359ZM88.3833 48.9423V52.7526C89.0005 51.3746 89.5348 50.2001 90.106 48.9423H88.3833ZM73.7357 63.1663C73.4593 62.3894 73.2843 61.779 73.0079 61.2149C72.9618 61.1224 72.2617 61.1779 72.2156 61.3074C71.9945 61.89 71.9024 62.5282 71.755 63.1663H73.7357ZM86.8448 93.6858C87.241 94.2315 87.6095 94.7309 88.024 95.2951C88.4386 94.6754 88.7702 94.176 89.0927 93.6951C88.3465 92.7333 87.6371 92.7055 86.8448 93.6951V93.6858ZM89.1295 35.8004C88.761 35.264 88.4017 34.7461 87.9964 34.1635C87.5726 34.7831 87.2041 35.301 86.8725 35.7912C87.6371 36.7068 88.3465 36.7715 89.1295 35.7912V35.8004ZM89.1664 56.4797C88.2543 55.4994 87.5634 55.6474 86.7067 56.5907C87.0659 56.9421 87.416 57.2936 87.9043 57.7837C88.4294 57.2381 88.7794 56.8774 89.1664 56.489V56.4797ZM87.0383 72.7291C87.3792 73.1545 87.6279 73.4782 87.9872 73.9314C88.3741 73.5152 88.6505 73.2192 88.9821 72.8771C88.586 72.5071 88.2728 72.2112 87.9411 71.8967C87.591 72.2204 87.3239 72.4701 87.0475 72.7383L87.0383 72.7291ZM88.1438 97.3389C88.0517 97.3389 87.9595 97.3389 87.8674 97.3389C87.7937 97.9031 87.7016 98.4672 87.674 99.0314C87.674 99.1701 87.8582 99.3273 87.9595 99.4753C88.0977 99.3181 88.3465 99.1609 88.3372 99.0129C88.3188 98.4487 88.2175 97.8938 88.1438 97.3297V97.3389ZM87.8858 32.1843C87.9595 32.1843 88.0424 32.1843 88.1161 32.1843C88.1898 31.6479 88.3004 31.1115 88.328 30.5751C88.328 30.4179 88.1069 30.2422 87.9872 30.0757C87.8766 30.2514 87.6647 30.4271 87.674 30.6028C87.7016 31.1393 87.8121 31.6664 87.8951 32.1936L87.8858 32.1843Z" fill="white"/>
<path d="M88.0699 109.112C84.4679 109.112 80.8659 109.112 77.2639 109.112C75.6793 109.112 75.6793 109.084 75.6701 107.457C75.6701 105.995 75.6333 104.534 75.6241 103.073C75.6149 101.704 77.0888 100.789 78.3049 101.39C80.8014 102.629 83.519 102.86 86.2183 102.842C89.2215 102.823 92.2247 102.546 95.2187 102.25C96.1215 102.157 96.9967 101.695 97.8442 101.306C98.7931 100.881 100.387 101.76 100.378 102.805C100.378 104.506 100.286 106.208 100.304 107.919C100.313 108.761 99.9815 109.001 99.1985 109.001C95.4951 108.973 91.7825 108.992 88.0792 108.992C88.0792 109.038 88.0792 109.084 88.0792 109.121L88.0699 109.112ZM98.6457 103.036C91.4509 105.089 84.4403 105.08 77.3284 103.017C77.3284 104.164 77.3744 105.302 77.3099 106.439C77.2731 107.262 77.5679 107.503 78.3786 107.503C82.4688 107.484 86.5683 107.54 90.6586 107.531C92.9801 107.531 95.3109 107.466 97.6324 107.373C97.9732 107.364 98.5812 107.096 98.5904 106.911C98.6734 105.616 98.6365 104.303 98.6365 103.036H98.6457ZM98.83 108.428C98.83 108.344 98.83 108.252 98.8207 108.169H77.1717C77.1717 108.252 77.1717 108.344 77.1717 108.428H98.83ZM77.835 102.12C80.783 104.608 96.6651 104.488 98.0193 102.13C91.368 103.951 84.643 104.035 77.835 102.12ZM99.6867 107.827V102.98C99.1524 103.794 99.134 107.003 99.6867 107.827ZM76.6098 103.184C76.5361 103.184 76.4532 103.184 76.3795 103.184V107.734C76.4532 107.734 76.5361 107.734 76.6098 107.734V103.193V103.184Z" fill="white"/>
<path d="M100.359 24.0642C100.359 24.8688 100.424 25.6734 100.332 26.4688C100.286 26.8849 100.028 27.3196 99.7514 27.6618C99.0605 28.5127 98.3512 28.3277 97.3286 27.9947C95.3111 27.3289 93.1738 26.8017 91.0642 26.7092C87.9965 26.5705 84.9012 26.774 81.8334 27.0329C80.5898 27.1346 79.3737 27.6988 78.1854 28.1705C77.1812 28.5681 75.6335 27.7635 75.6151 26.6815C75.5967 24.8688 75.6427 23.0561 75.6612 21.2527C75.6612 20.6701 75.8915 20.3649 76.5363 20.3741C84.1642 20.4296 91.8012 20.4758 99.429 20.5036C100.074 20.5036 100.295 20.7718 100.277 21.3729C100.258 22.2793 100.277 23.1764 100.277 24.0827C100.304 24.0827 100.323 24.0827 100.35 24.0827L100.359 24.0642ZM77.3655 26.3948C84.4866 24.4249 91.5248 24.3786 98.6275 26.4225V22.085H77.3655V26.3948ZM77.172 21.04C77.172 21.1417 77.172 21.2434 77.172 21.3452H98.8118C98.8118 21.2434 98.8118 21.1417 98.8118 21.04H77.172ZM77.909 27.3381C84.6801 25.4514 91.4235 25.433 98.1209 27.3566C96.1034 24.8873 80.0278 24.8596 77.909 27.3381ZM76.3152 26.2838H76.5732V21.6966H76.3152V26.2838ZM99.6593 21.7521C99.5948 21.7521 99.5211 21.7521 99.4567 21.7521V26.4133C99.5211 26.4133 99.5948 26.4133 99.6593 26.4133V21.7521Z" fill="white"/>
<path d="M69.5811 13.4008C60.9123 13.4008 52.2434 13.4008 43.5746 13.4008C43.0587 13.4008 42.5336 13.4008 42.0177 13.3268C40.0463 13.0494 39.0053 11.8564 38.9961 9.86796C38.9961 7.77783 39.9634 6.46456 41.9901 6.31659C44.5051 6.12237 47.0477 6.13162 49.5719 6.12237C62.9206 6.10388 76.2785 6.11313 89.6271 6.12237C92.05 6.12237 94.482 6.10388 96.9049 6.25185C99.7607 6.42757 100.802 8.53619 100 11.2552C99.6502 12.4575 98.6644 13.1511 97.4392 13.2621C95.9929 13.3916 94.5373 13.4008 93.0818 13.4008C85.2421 13.4101 77.4116 13.4008 69.5719 13.4008H69.5811ZM70.0048 7.09345V9.30381H73.3581C73.3766 9.23907 73.4042 9.18358 73.4226 9.11884C72.2711 8.45296 71.1195 7.78708 69.9772 7.1212C69.7469 7.1212 69.4705 7.03796 69.3047 7.13969C68.19 7.78708 67.103 8.4807 66.0067 9.15583C66.7989 9.37779 67.5359 9.33155 68.2729 9.39629C69.1665 9.47953 69.5258 9.19283 69.4429 8.24949C69.406 7.83332 69.1297 7.13044 70.0141 7.09345H70.0048ZM84.2011 12.402C83.0772 11.9118 84.0076 10.7928 83.5009 10.1269H79.8068C81.1057 10.9315 82.2112 11.6436 83.3351 12.3003C83.5562 12.4297 83.8878 12.3558 84.1642 12.3743C85.3342 11.6806 86.5134 10.9963 87.6833 10.3026C87.6557 10.2379 87.6281 10.1732 87.6004 10.1084H84.1919V12.4113L84.2011 12.402ZM53.9477 6.97322C53.9477 6.87149 53.9293 6.76976 53.9201 6.65878C52.1605 6.73276 50.3826 6.65878 48.6506 6.94548C47.3885 7.14894 46.8174 8.26799 47.0016 9.3593C49.8574 10.1084 51.8197 8.29574 53.9477 6.97322ZM46.9924 10.2101C46.8726 11.3015 47.5544 12.4667 48.7151 12.587C50.4286 12.7534 52.1605 12.6332 54.1872 12.6332C51.7828 11.2275 49.8574 9.35005 46.9924 10.2194V10.2101ZM85.3802 6.76051C87.4807 8.31423 89.4429 10.1362 92.2987 9.35005C92.2987 8.01829 91.4512 6.88074 90.1154 6.78825C88.5401 6.66803 86.9556 6.76051 85.3802 6.76051ZM85.3526 12.4482C85.371 12.5315 85.3987 12.6147 85.4171 12.698C86.9924 12.698 88.5769 12.7904 90.143 12.6702C91.5802 12.5592 92.4093 11.4402 92.2066 10.2101C89.36 9.33155 87.4715 11.2275 85.3526 12.4482ZM98.5263 7.49113C96.4351 6.39982 94.2241 6.89924 92.096 6.75126C92.5014 7.71309 92.833 8.52694 93.2107 9.42403C95.1085 9.3593 96.8772 8.71191 98.5263 7.49113ZM47.1582 6.73276C44.9749 6.96397 42.7363 6.2796 40.4332 7.51887C42.3862 8.66567 44.155 9.42403 45.9975 9.38704C46.412 8.44371 46.7437 7.66685 47.1582 6.73276ZM93.2107 10.2009C92.8054 11.1165 92.4553 11.9026 92.0408 12.8274C94.2702 12.6055 96.4811 13.2621 98.8487 12.1061C96.8865 10.8945 95.0993 10.2101 93.2015 10.2009H93.2107ZM45.9975 10.1824C44.0813 10.2564 42.3033 10.9038 40.4148 12.1246C42.7824 13.2251 45.0118 12.7072 47.1951 12.7997C46.7621 11.8656 46.412 11.098 45.9975 10.1824ZM65.5553 10.0622C66.9924 10.9593 68.1716 11.7084 69.3784 12.4297C69.5258 12.5222 69.8114 12.55 69.9496 12.4667C71.1748 11.7361 72.3816 10.9778 73.828 10.0807H70.1154C70.0325 10.839 69.9588 11.5142 69.8851 12.18C69.7653 12.18 69.6456 12.18 69.5166 12.18C69.4613 11.4864 69.3968 10.802 69.3323 10.0714H65.5553V10.0622ZM56.8865 6.78825C56.8588 6.86224 56.822 6.92698 56.7943 7.00097C58.0104 7.73159 59.2264 8.47145 60.3687 9.16508C60.7741 8.32348 61.1334 7.57436 61.5111 6.78825H56.8865ZM64.7446 9.15583C65.9238 8.43446 67.1306 7.69459 68.5585 6.816H63.6115C63.9892 7.59286 64.33 8.29574 64.7446 9.15583ZM63.6115 12.7072H68.2821C68.3006 12.6425 68.3282 12.5777 68.3466 12.513C67.1398 11.7824 65.9238 11.0517 64.7446 10.3396C64.3393 11.1812 64.0076 11.8841 63.6115 12.7072ZM60.3595 10.3396C59.208 11.0425 58.0104 11.7639 56.8128 12.4852C56.8588 12.5592 56.8957 12.624 56.9417 12.698H61.4834C61.1057 11.9026 60.7556 11.172 60.3595 10.3396ZM74.5281 9.0726C74.9334 8.27724 75.2927 7.56512 75.6889 6.7975H71.2117C71.184 6.86224 71.1564 6.93623 71.1287 7.00097C72.2803 7.70384 73.4318 8.40672 74.5281 9.0726ZM77.8906 6.7975C78.2867 7.58361 78.646 8.29574 79.0422 9.08185C80.1753 8.38822 81.29 7.69459 82.4047 7.01022C82.377 6.94548 82.3494 6.87149 82.3217 6.80675H77.8814L77.8906 6.7975ZM79.0329 10.4136C78.6092 11.2645 78.2683 11.9581 77.909 12.6887H82.3217C82.3494 12.6055 82.377 12.5315 82.4047 12.4482C81.2808 11.7639 80.1568 11.0887 79.0422 10.4136H79.0329ZM74.5189 10.4136C73.3581 11.1257 72.1882 11.8379 70.7971 12.6887H75.652C75.2651 11.9211 74.9242 11.2275 74.5097 10.4136H74.5189ZM40.1016 8.08302C39.4199 9.12809 39.4383 10.4506 40.1384 11.5049C40.6912 11.1997 41.2531 10.8945 41.8611 10.5616C41.6492 10.2656 41.4558 10.0067 41.1886 9.646C41.465 9.47953 41.7045 9.3408 42.0177 9.14658C41.29 8.74891 40.728 8.43446 40.1016 8.09227V8.08302ZM97.3102 9.08185C98.167 9.54426 97.909 10.0437 97.3839 10.5523C98.038 10.9038 98.6092 11.209 99.2448 11.5512C99.7791 10.3304 99.8068 9.24832 99.208 8.06453C98.5539 8.41597 97.9827 8.72116 97.3194 9.09109L97.3102 9.08185ZM83.6391 6.99172C82.3125 7.81482 81.161 8.52694 79.816 9.3593H83.5654C83.593 9.14658 83.6391 8.98011 83.6391 8.81364C83.6391 8.26799 83.6391 7.72234 83.6391 6.99172ZM75.4217 10.0252C75.3941 11.2367 76.1311 12.4113 76.822 12.3743C77.5498 12.328 78.213 11.1165 78.0656 10.0252H75.4217ZM78.1578 9.3593C78.1301 8.24949 77.3747 7.1027 76.7483 7.13969C76.0389 7.18593 75.348 8.38822 75.523 9.3593H78.1578ZM55.7441 10.0807V12.402C56.9786 11.6436 58.1209 10.95 59.254 10.2471C59.2264 10.1916 59.1988 10.1362 59.1711 10.0807H55.7441ZM59.1343 9.36855C59.1527 9.31306 59.1619 9.24832 59.1803 9.19283C58.0472 8.4992 56.9141 7.80557 55.7073 7.06571V9.36855H59.1343ZM61.2715 10.0437C61.2255 11.1627 61.8888 12.3373 62.5244 12.3465C63.2061 12.365 63.9063 11.098 63.7773 10.0437H61.2715ZM61.2531 9.29456H63.8234C63.8141 8.30498 63.1232 7.19518 62.5613 7.16744C61.9533 7.13969 61.2439 8.26799 61.2439 9.29456H61.2531ZM87.6281 9.38704C87.6465 9.33155 87.6649 9.26681 87.6833 9.21132C86.5871 8.54544 85.5 7.87956 84.2932 7.13969V9.38704H87.6281ZM55.0624 10.1454H51.6815C51.6723 10.2101 51.6631 10.2656 51.6539 10.3304C52.7685 11.0055 53.8832 11.6806 55.0716 12.3928V10.1454H55.0624ZM51.3038 9.37779H54.9795V7.1027C53.8188 7.82407 52.6948 8.5177 51.3038 9.37779Z" fill="white"/>
<path d="M30.6127 96.9689C31.0918 97.0892 31.5155 97.1909 31.9393 97.2926C31.9209 97.4036 31.9117 97.5146 31.8932 97.6255H28.3649C28.3465 97.5608 28.3373 97.4961 28.3188 97.4313C28.4755 97.3481 28.6413 97.1816 28.7887 97.2001C29.8112 97.3389 29.9586 96.8302 29.9586 95.9331C29.931 87.6743 29.9402 79.4156 29.9402 71.166C29.9494 54.6855 29.9679 38.2049 29.9771 21.7336C29.9771 20.2446 29.9771 18.7556 29.9771 17.3036C29.3322 17.1834 28.8532 17.0909 28.3741 16.9984C28.3833 16.8967 28.4018 16.795 28.411 16.6932H31.8103C31.8195 16.8042 31.838 16.9152 31.8472 17.0262C31.4787 17.0909 31.1102 17.1649 30.6035 17.2481V96.9689H30.6127Z" fill="white"/>
<path d="M28.3833 98.4302H31.8748C31.8748 98.5319 31.8748 98.6336 31.8748 98.7446H28.3833C28.3833 98.6429 28.3833 98.5412 28.3833 98.4302Z" fill="white"/>
<path d="M28.374 15.2875H31.8102C31.8102 15.3985 31.8102 15.5094 31.8194 15.6204C30.6955 15.8239 29.544 15.7036 28.4017 15.6852C28.3924 15.5557 28.3832 15.4262 28.374 15.2875Z" fill="white"/>
<path d="M108.66 17.2574C108.144 17.1557 107.766 17.0909 107.397 17.0169L107.425 16.6932H110.788C110.797 16.795 110.806 16.8967 110.824 16.9984C110.382 17.0817 109.94 17.1557 109.378 17.2574V97.0522C109.903 97.1354 110.419 97.2186 110.935 97.3111C110.935 97.4313 110.926 97.5516 110.917 97.6811C109.737 97.9123 108.558 97.6811 107.379 97.6348C107.361 97.5238 107.342 97.4128 107.324 97.3019C107.738 97.2001 108.162 97.0891 108.669 96.9597V17.2574H108.66Z" fill="white"/>
<path d="M110.834 98.7816H107.269C107.904 98.1435 109.94 98.0972 110.834 98.7816Z" fill="white"/>
<path d="M111.101 15.639H107.462C107.913 14.9638 110.041 14.8806 111.101 15.639Z" fill="white"/>
<path d="M35.9556 1.79413C58.3876 1.4057 80.8197 1.4057 103.252 1.79413V2.20106H35.9648C35.9648 2.06233 35.9648 1.93286 35.9648 1.79413H35.9556Z" fill="white"/>
<path d="M111.543 2.34907H107.075C107.075 2.22885 107.075 2.11787 107.075 1.99764C108.568 1.75718 110.051 1.89591 111.543 1.9329C111.543 2.07162 111.543 2.21035 111.543 2.34907Z" fill="white"/>
<path d="M32.3077 2.02539C31.4878 2.60804 28.3924 2.66353 27.4712 2.02539H32.3077Z" fill="white"/>
<path d="M44.6522 60.5767C44.6983 63.1385 44.7351 65.691 44.772 68.2528C44.772 68.3638 44.6614 68.4748 44.4127 68.5765C44.1916 65.9315 44.1271 63.2864 44.1732 60.6414C44.339 60.6229 44.4956 60.6044 44.6614 60.5767H44.6522Z" fill="white"/>
<path d="M58.3233 60.6415V68.5673C58.1575 68.5673 57.9917 68.5673 57.8259 68.5673C57.5403 65.9223 57.8443 63.2588 57.789 60.6045C57.9641 60.6137 58.1483 60.6322 58.3233 60.6415Z" fill="white"/>
</g>
<defs>
<clipPath id="clip0_368_1081">
<rect width="140" height="157" fill="white"/>
</clipPath>
</defs>
</svg>
