<svg width="65" height="80" viewBox="0 0 65 80" fill="none" xmlns="http://www.w3.org/2000/svg">
<path d="M43.0494 17.0702C45.6368 14.1355 47.3753 10.0492 46.9306 6C43.2111 6.14859 38.6831 8.3032 36.0147 11.2379C33.6294 13.8383 31.5271 17.9989 32.0931 21.9738C36.2573 22.271 40.5024 20.0049 43.0898 17.0702H43.0494Z" fill="white"/>
<path d="M51.6212 43.2681C51.6212 40.4661 52.3075 38.1499 53.2987 36.2445C55.4718 32.135 58.9412 30.1176 59.17 29.9682C55.0525 23.9534 48.6474 23.1315 46.3599 23.0568C40.908 22.4964 35.723 26.2697 32.978 26.2697C30.2329 26.2697 25.9629 23.1315 21.426 23.2436C15.4785 23.3183 9.98846 26.6806 6.93844 31.9856C5.98531 33.6294 5.29906 35.3853 4.80343 37.2532C2.21091 47.3776 6.29031 59.8555 11.361 67.1779C14.2966 71.4368 17.8041 76.1815 22.4173 75.9947C26.8398 75.8079 28.5173 73.118 33.893 73.118C39.2686 73.118 40.7555 75.9947 45.4449 75.8826C50.2106 75.8079 53.2225 71.5489 56.1581 67.29C59.5512 62.3586 60.9238 57.614 61 57.3524C60.8856 57.3151 51.6974 53.8033 51.6212 43.2307V43.2681Z" fill="white"/>
</svg>
