<svg width="79" height="98" viewBox="0 0 79 98" fill="none" xmlns="http://www.w3.org/2000/svg">
<path d="M9 40C6.7619 40 5 41.7153 5 43.8368V62.2083C5 64.2847 6.7619 66 9 66C11.2381 66 13 64.2847 13 62.2083V43.8368C13 41.7153 11.2381 40 9 40Z" fill="white"/>
<path d="M69.9763 40C67.7988 40 66 41.7153 66 43.8368V62.2083C66 64.2847 67.7988 66 69.9763 66C72.1538 66 74 64.2847 74 62.2083V43.8368C74 41.7153 72.1538 40 69.9763 40Z" fill="white"/>
<path d="M16 40V74.5508C16 77.7542 18.6215 80.3627 21.8984 80.3627H28.2181V90.1559C28.2181 92.3068 29.997 94 32.1504 94C34.3038 94 36.0827 92.3068 36.0827 90.1559V80.3627H42.8237V90.1559C42.8237 92.3068 44.6026 94 46.8028 94C49.003 94 50.7351 92.3068 50.7351 90.1559V80.3627H57.1016C60.3317 80.3627 63 77.7542 63 74.5508V40.1831C63 40.1831 63 40.0458 63 40H16Z" fill="white"/>
<path d="M51.0261 16.2029L55.2688 8.50409L54.4203 8L50.1775 15.7447C46.9248 14.1408 43.342 13.27 39.5236 13.27C35.7051 13.27 32.4052 14.0491 29.2939 15.5155L25.1926 8.04583L24.344 8.54992L28.4453 15.9738C21.0913 19.8232 16.0943 27.293 16 36H63C62.9529 27.5221 58.1444 20.144 51.0732 16.2488L51.0261 16.2029ZM27.3611 27.1555C26.1354 27.1555 25.1454 26.1931 25.1454 24.9558C25.1454 23.7185 26.1354 22.802 27.3611 22.802C28.5868 22.802 29.6239 23.7643 29.6239 24.9558C29.6239 26.1473 28.6339 27.1555 27.3611 27.1555ZM51.2146 27.1555C49.989 27.1555 48.999 26.1931 48.999 24.9558C48.999 23.7185 49.989 22.802 51.2146 22.802C52.4403 22.802 53.4303 23.7643 53.4303 24.9558C53.4303 26.1473 52.4403 27.1555 51.2146 27.1555Z" fill="white"/>
</svg>
